<svg aria-hidden="true" style="position:absolute;width:0;height:0;overflow:hidden" xmlns="http://www.w3.org/2000/svg"><defs><symbol id="DRG" viewBox="0 0 32 32"><path d="M23.125 10.75h-1.188l-.5.625q-.625.625-.938.625t-.531-.469-.219-.906V5.5q0-.625-.438-1.438-.188-.438-.375-.688l-.438.75q-.438.813-.438 1.375v5.5l-.125.188q-.25.25-.625.5-.625.438-1.313.563-.688-.125-1.313-.563-.375-.25-.625-.5l-.125-.188v-5.5q0-.875-.875-2.125l-.375.688q-.438.813-.438 1.438v5.125q0 .438-.219.906t-.531.469q-.5 0-1.438-1.25H8.87q-.188 0-.344.125t-.156.281 2.313 5.281q1.688 3.75 1.875 4.188.25.563 1.313 3.875l.625 1.813q.125.438.438.75t.5.313h1.125q.188 0 .5-.313t.438-.75l.625-1.813q1.063-3.313 1.313-3.875.188-.438 1.875-4.188 2.313-5.125 2.313-5.281t-.156-.281-.344-.125zm-2.937 4.5q-.125.438-.719 1.094t-1.156 1.031l-.313.188q-.375.25-.594.406t-.438.438-.219.406.375.625q.563.625.563.813v1.75q0 .188-.563.938-.313.438-.375.563-.375.813-.375 1.375 0 .188-.188.313l-.188.063-.188-.063q-.188-.125-.188-.313 0-.563-.375-1.375-.063-.125-.375-.563-.563-.75-.563-.938v-1.75q0-.188.563-.813.375-.5.375-.625t-.219-.406-.438-.438-.594-.406l-.313-.188q-.563-.375-1.156-1.031t-.719-1.094L11.495 14l.188-.25q.25-.375.5-.563.563-.313.938-.313.125 0 .438.375.688.75 1.063.938.938.375 1.375.313h.313q.438-.063 1.063-.313.375-.188 1.063-.938.313-.375.438-.375.375 0 .844.313t.781.813z"/></symbol><symbol id="GLA" viewBox="0 0 32 32"><path d="M27.188 26.125q-.125-.063-.438-.25l-.063-.063q-.063-.063-.125-.063l-.375.375q-.125.125-.219.031t-.031-.219l.375-.375-3-3.313-.625.625q-.125.125-.25 0t0-.25l2.375-2.375-.688-.75-1.25 1.25q-.188.188-.875 0h-.125l-.5.5h-.063q-.063 0-.156-.063t-.031-.188l.313-.313-.438-.438q-.125-.438-.094-.875t.156-.875q-.25 0-.625-.188-.875-.375-1.75-1.188-1.25-1.125-3.313-3.125-2.313-2.313-3.531-3.656T9.248 7.37L8.185 5.995l-4.188-2 2 4.188 1.375 1.063q1.625 1.375 2.969 2.594t3.656 3.531q2 2 3.125 3.313.813.875 1.188 1.75.188.375.188.625.438-.125.875-.156t.875.094l.688.688-.188.188v.125q.188.688 0 .875l-1.25 1.25.75.688 1.688-1.75 3.563 3.188.25.313q0 .063.063.125v.063q.25.313.344.5t.031.688l.188.063h.5q.438-.063.75-.375t.375-.75-.063-.688h-.313q-.313 0-.438-.063zm-5.5-14.312q2.125-1.875 4.313-3.625l2-4.188-4.188 2-1.063 1.375Q21.375 9 20.187 10.313q-1.375 1.563-3.938 4.063l1.375 1.375q2.5-2.563 4.063-3.938zm-8.375 5.312q-.625.625-1.25.938-.438.25-.813.375l-.313.063q.125.438.156.875t-.094.875l-.438.438.313.313q.063.125-.031.188t-.156.063l-.5-.438-.063-.063h-.125q-.688.188-.875 0l-1.25-1.25-.688.75 2.375 2.375q.125.125 0 .25t-.25 0l-.625-.625q-2.75 3.063-3 3.313l.375.375q.063.125-.031.219t-.219-.031l-.375-.375q-.063 0-.125.063h-.063q-.313.25-.5.344t-.688.031l-.063.188v.5q.063.438.375.75t.75.375.688-.063v-.313q0-.313.063-.438t.25-.438l.063-.063q.063-.063.063-.125l.25-.313 3.563-3.188 1.688 1.75.75-.688-1.25-1.25q-.188-.188 0-.875 0-.125-.063-.188l-.125-.125.688-.688q.438-.125.906-.094t.844.156l.063-.313q.125-.375.375-.813.313-.625.938-1.313l.875-.938-1.438-1.438z"/></symbol><symbol id="MRD" viewBox="0 0 32 32"><path d="M23.938 21.938q-2.063-2.125-4.625-5.188-1.875-2.188-2.75-3.313-1.563-2-2.625-3.75l-.313-.5q-.125-.125-.688.25l-.125.063q-.188.063-.25 0t.063-.125l.563-.438q.688-.5.688-.625.063-.25-.406-.969t-.719-.719q-.125 0-.625.25l-.875.438q-.188.063-.219-.031t.375-.375.438-.406-.25-.625-.438-.563-.844.344-.688.594.875 1.375q-.938.375-1.688.469t-1.938.031q.125.875.688 1.813.438.813 1.25 1.625l.063.063q-.063.063-.531-.313t-.906-1q-.813-1.063-1.125-2.25-.813-.125-1.625-.688L4 6.812l.063.75q.125.875.5 1.875.563 1.313 1.5 2.563 1.063 1.438 2.688 2.563.813.563 1.375.813l-.063-.688q0-.813.063-1.563.188-1 .625-1.75.5-.875 1.313-1.563 1.438 1.813 3.938 5l1.438 1.875q2.688 3.438 3.438 4.375.813 1.125 1.625 2.5 1 1.625 1.25 2.313v.063q.25.688.375.75t.563-.375.688-.938q.625-1.25.5-1.75 0-.063-.5-.5-.875-.625-1.438-1.188zM15 14.188q-.063-.125-.188 0-3.625 4.563-6.75 7.75-.563.563-1.438 1.188-.5.438-.5.5-.125.5.5 1.75.25.5.688.938t.563.375.375-.781 1.25-2.281q.813-1.438 1.625-2.531t3.688-4.719l.875-1.125q.125-.063 0-.188zm13-7.375q-.375.313-.688.563-.813.563-1.625.688-.313 1.188-1.125 2.25-.438.625-.906 1t-.531.313l.063-.063q.813-.813 1.25-1.625.563-.938.688-1.813-1.188.063-1.938-.031T21.5 7.626q.875-1.188.875-1.375t-.688-.594-.875-.344-.438.563-.219.625.438.406.375.344-.219.063l-.875-.438q-.5-.25-.625-.25-.25 0-.719.719t-.406.969q0 .125.688.625l.563.438q.125.063.063.125t-.25 0l-.125-.063q-.563-.375-.688-.25l-.5.75q-.938 1.5-1.563 2.25-.063.125 0 .25l.75.813q.063.125.188 0 .563-.75 2.688-3.438.813.688 1.375 1.656t.625 2.531q0 .813-.063 1.375l.625-.375q.875-.438 1.625-1.063 1.063-.875 1.813-1.938.938-1.25 1.5-2.563.375-1 .5-1.875z"/></symbol><symbol id="LNC" viewBox="0 0 32 32"><path d="M24 20.125q-.063 0-.125.063l-2 2.063q-.125.063-.219.063t-.156-.031.125-.219l1.875-1.938q.063 0 .063-.063-.5-.125-.938-.313-.813-.313-1.438-.938h-.063l-.688.688q-.125.125-.219.125t-.156-.031.125-.219l.688-.75.063-.063q-.375-.438-.438-.813l-2.438-1.688q-2.688-1.938-4-3.125l-7.625-6.75v-.438L4.248 4.06q-.125-.125-.25-.063v.063q0 .125.063.188l1.688 2.188h.438l6.75 7.625q1.875 2.063 4.813 6.438l.375.125q.438.25.813.688.5.5.813 1.313.5 1.063.5 2.688v.25q.125.125.25 0l1.688-1.688q.188-.188.313 0l.313.25q.125.188.75 0l2.063 2.063q-.063.25 0 .5 0 .125.125.313l.063.125q0 .125.094.188t.344.063l.25-.063q.375-.063.5.063l.75.563q.125.125.25.063v-.063q0-.125-.063-.188l-.563-.75q-.125-.125-.063-.5l.063-.25q0-.25-.063-.344t-.25-.094l-.875.875v-.125q0-.188.25-.438l.313-.313q.063-.063.031-.125t-.094-.063q-.25-.063-.5 0l-2.063-2 .063-.375q.063-.375-.063-.438l-.188-.188q-.063-.063-.125 0l-.438.438q-.125.125-.281.188t-.219.031.063-.156l2.625-2.625q.125-.125 0-.25h-.25q-.75 0-1.313-.125z"/></symbol><symbol id="ARC" viewBox="0 0 32 32"><path d="m17.25 16.063 7.125-7.125h.438q.313.188.656.156t.688-.281.469-.75q.125-.25.125-.875.063-.75.25-.938.313-.375.875-.688l.125-.063q0-.063-.219-.063t-.531.094-.656.344-.406.5v.125q-.063.438-.313.688-.375.375-.906.344t-.844-.344-.188-1.313l-.563-.125q-.75-.063-1.563-.063-1.125.063-2.25.375-1.875.438-4.438 1.938-.688.438-.875.438-.5.188-1.5 0-.5-.063-.938-.375l-.188-.063h-.469l-.031.188 1.375 1.375q.188.188.063.344t-.344.125-.469-.125-.25-.031l-.25.25q-.063.063 0 .063l1.188 1.188q.063.063.125 0l.688-.688q.188-.125.313 0l.688.688q.125.125.188-.125.438-.938 1.125-1.688t2-1.313 2.875-.813q2-.313 3.563.688v.5l-7.063 7.125q-.063 0-.063.031v.094l.25.188q.063.063.125 0zM5.5 28l.063-.125q.313-.563.688-.875.188-.188.938-.25.563 0 .875-.125.5-.125.75-.469t.281-.688-.156-.656v-.438l7.5-7.438 6.625 6.625.063 1.375.313.313.063-.625q0-.125.125-.188v1l2.188 2.188-.063-1.563.313-.313 1.563.063-2.188-2.188h-1q.063-.125.188-.125l.625-.063-.313-.313-1.375-.063-14.75-14.75q-1.25-1.25-1.188-1.5t.5-.313l-4.125-2.5 2.5 4.125.063-.25q.063-.188.25-.25.25 0 1.5 1.188l2.125 2.125-.563.563q-.063 0 .031.25t.125.469-.125.344-.344-.063L8.19 11.122q-.188-.188-.188.031v.469l.063.188q.313.438.375.938.188 1 0 1.5 0 .188-.438.875-1.5 2.563-1.938 4.438-.313 1.125-.375 2.25 0 .813.063 1.563l.125.625.5-.063q.625 0 .875.25t.281.781-.344.906q-.25.25-.625.313h-.188q-.313.125-.531.438t-.313.656-.094.531.063.188zm2.625-4q-1-1.563-.688-3.563.25-1.563.813-2.875t1.313-2 1.688-1.125q.25-.063.125-.188l-.688-.688q-.125-.125 0-.313l1.063-1 4.313 4.313-7.438 7.438h-.5z"/></symbol><symbol id="CNJ" viewBox="0 0 32 32"><path d="M7.938 17.625q0-.375-.25-.625t-.594-.25T6.5 17t-.25.656.25.656.594.25.594-.25.25-.688zm3.312-7q.438 0 .719-.313t.281-.781-.281-.781-.688-.313-.719.313-.313.781.313.781.688.313zm5.875-2.437q.375 0 .656-.281t.281-.719-.281-.719-.656-.281-.656.281-.281.719.281.719.656.281zm6.438 1.375q.375 0 .625-.25t.25-.656-.25-.656-.594-.25-.594.25-.25.656.25.656.563.25zm3.937-1.25q-.25.25-.438.5-.5.438-.75.625-.125.063-.375.125l-.188.063-.25.188q-.25.188-.438.188-.688.25-1.75.25l-.75-.063.125-.188.25-.188-.063-.125q-.063-.063-.25.063l-.375.25q-.188-.188-.25-.375-.313-.625-.25-1.5.063-1.25.438-1.875l.688-1.063q-.188 0-.375.063t-.656.531-.656.781q-.438.688-.438 1.25 0 .25.156.656t.344.656q.313.563.75 1-.625.625-.875.938t-.563 1.125v.125q-.125.188-.313.25l-.25.125q-.25.063-.313.125l-.5.438q-.25-.313-.313-.688-.125-.5-.5-1.438l-.5-1.063.313-.375q.375-.375.563-.688.25-.375.531-1.031t.344-1.031q.125-.75-.313-1.625-.25-.5-.594-.875t-.781-.781-.563-.469-.188 0l.125.125q.563.688.688 1.031t.125.969l-.063.563.125.188q.188.188.25.438.125.625-.063 1.625-.125.688-.375 1.188l-.25.375-.25-.25-.063-.438q-.188-.313-.281-.281t-.063.156.031.25-.063.125q-.188-.313-.438-.563l-.25-.313q-.938-1.063-1.563-1.563t-1.281-.813-1.094-.313-.688.156-.625.469l-.563.563q-.063.063-.063.25l.188-.125q.25-.125.563-.125.5 0 1.375.625l.875.625.563-.063q.563-.063.75 0 .688.25 1 .5.188.188.5.563t.375.438q.063.25.125.25l.063.063q.313.188.438.375.313.313.563 1.125.375 1 .375 1.813 0 .25-.094.75t-.094.813q0 .938-.75 2.125-.125.25-.125.313l.063.125q.313.5.375.813l.188.375q.125.25.094.375t-.344.375q-.313.188-.688.375l.063.125q.125.125.313.188l.188.063q.375.125.625.313l.313.375q.188.25.188.313-.5-.375-1.063-.625-.313-.125-.75-.25l-.625-.188q-1.188-.5-2.188-1.188-.75-.5-1.25-1.188l-.625-.25-.188-.125q-.313-.188-.344-.313t-.031-.5l.063-.313-.25-.875q-.25-.875-.313-1.188-.063-.5-.063-1l.375-.438q.438-.5.75-.625.75-.313 1.313-.313l.938.125q.063 0 .469-.313t.656-.625l.875-1.063.063-.188-.375.188q-.375.188-.813.188-.25 0-.75-.063l-.25-.063q-.125 0-.594.188t-1.031.563q-.688.5-1.188 1.125l-.375.563q-.063-.125-.125-.313 0-.313.125-.625 0-.125-.094-.156t-.25.156-.219.406-.063.406h-.125q-.125-.063-.25-.25-.375-.563-.5-.813-.25-.625-.25-1.313 0-.5.188-.875l.188-.313q-.188-.5-.125-1.063 0-.375.063-.625l.063-.125q0-.25.094-.469t.188-.375.094-.344l-.375.313q-.438.438-.875 1-1 1.188-1 2.25 0 1.125 1.125 2.25l1.438 1.438q-.063.375-.031.781t.156.906q.25.813.25 1.688 0 .563-.094 1.094t-.125.656-.031.25h.25q.313 0 .438.063l.5.25 1.063 1.188q.813.938 1.563 1.438h-.313q-.313-.063-.656-.25t-.531-.375l-.375.063q-.375.063-.563.063-.313 0-.813-.188-.625-.188-1.063-.563-.938-.75-1.063-1.313l.063-.688q.063-.75-.063-1.875-.063-.438-.406-1.375t-.625-1.344-.813-.688-1.031-.281q-1 0-1.5.375.875.125 1.5.813.5.563 1.063 1.688.313.063.563.25.688.563.938 1.563 0 .25.063.688v.375q0 .125-.125.063l-.125-.063q-.125-.125-.219-.094t-.031.156l.063.188q.125.313 0 .375-.563 0-1 .281t-1.094 1.031-.844 1.25q-.375.813-.25 1.75.125.625.813 1.563l.063-.563q.125-.625.25-.875.188-.375.75-1.25v-1.688q.063-.125.281-.469t.469-.531q.313-.25.75-.313l1 1.188q.75.813 1.281 1.125t1.531.875q.438.188.875.625l.313.375.375-.25q.313-.25.563-.313.688-.25 1.5-.25.563 0 1.125.25.375.25 1 .688l.563.5q.563.625.875 1.125.813 1.438.875 2.438.063.625.063 1.188l.125.375q.188-.188.438-.406t.563-.406q.5-.625 1.063-1.125.938-.75 1.656-.875t1.281 0q.25.063.406.25t.188.375-.031.313v.125q.25-.063.344-.281t0-.469-.219-.438h-.063q-.438-.5-1.031-.594t-1.094-.219l-1.125-.375q-.313-.125-.563-.25-.125-.063-.5-.563l-1.313-1.5q-.313-.375-.406-.688t-.063-.688.156-.563q.188-.438 1.188-.5 0-.313-.25-.438-.188-.125-.531-.188t-.469-.188q-.5-.25-.875-.813-.438-.688-.438-1.438t.5-1.906.906-1.406 1.094-.25l.188-.063-.125-.25q-.125-.375-.063-.719t.25-.719.406-.594.531-.469q.938.313 1.625.375.938.125 1.563 0t1.125-.625q.188-.188.438-.688t.313-.875v-.375zm-4.875 6.875q-.438 0-.719.313t-.281.75.281.75.688.313.688-.313.281-.75-.281-.75-.719-.313h.063zm0 2.437q-.375 0-.656.281t-.281.719.281.719.656.281.656-.281.281-.719-.281-.719-.656-.281zm-2-1.125q-.5 0-.813.344t-.313.813.313.813.781.344.781-.344.313-.813-.313-.813-.75-.344z"/></symbol><symbol id="THM" viewBox="0 0 32 32"><path d="M7.313 16.438q.688 0 1.188.5.313.313.5.688.063.125.125.125l.063-.063q.25-.375 1-.375.875 0 1.688.563.25.188.688.75.188.25.219.25t-.031-.25-.188-.5l-.063-.063q-.25-.563-.813-1-.313-.188-.781-.313t-.844-.5q-.813-.813-.625-1.375.063-.188.375-.313-.188-.125-.375-.125-.375.063-.719-.094t-.625-.656-.344-1v-.563q.063-.875-.188-1.313-.625-.875-1.438-1.563-.313-.188-.688-.375.125.25.313.438t.313.563q.313.563.25 1.188 0 .313-.281.938t-.281 1.031.688 1.094q.25.313.313.438t.094.313-.094.281-.875-.406l-.438-.438-.5-.438q-.313-.188-.688-.25.063.125.125.188.75.625.938 1.188.063.188.031.594t.094.563.469.5.469.344v-.063q.313-.563.938-.5zm3.125-8q.313.438.688 1.219t.469 1.219.125 1.031-.031.813-.188.469v-.313q-.125-.438-.313-.844t-.875-.906l-.188-.188q-.25-.25-.5-.25l.375.5q.688.938.688 2.188 0 .375-.313.938l-.063.188q-.063.188 0 .531t.25.531q.313.438 1.125.625t1.688 1.125q1.063 1.063 1.375 1.625.125.25.25.563l.063-.125q.063-.25 0-.5-.5-1.688-1.313-2.75-.938-1.25-1.063-2.313-.063-.688.375-1.344t.406-1-.156-.719l.188.25q.188.25.188.688 0 .188-.125.563-.25.813-.156 1.25t.781 1.313l.313.375q.125.188.188.5l.063.25q.063-.188.063-.313t.094-.5.188-.594.375-.469.375-.281.219.031l.063.063q.063-.563.063-1.125-.125-.813-1.313-1.938-.625-.563-1.031-1.469t-.406-2.031q-.063-1.375 1.313-2.75l.5-.563-.438.188q-.5.375-1.063.813-.688.688-1.438 1.813-.25.438-.344.875t-.031.688l.375.875q.063.188.063.375-.313-.563-.563-.875-.438-.5-1.563-1.063-.625-.375-1-.438l.438.375q.438.438.75.813zm6 7.562q0 .25-.156.469t-.375.219-.344-.375q-.063 0-.188.281t-.125.656q0 .563.438 1.125l.563.813.063-.125v-.188l-.125-.188q-.125-.188-.125-.438-.063-.438.25-.875.125-.125.25-.219t.25-.031.063.313l-.125.25q.188-.063.375-.188.438-.438.5-1.031t-.25-.906q-.5-.5-.438-.875.063-.625.438-1.188l.188-.25q.313-.438.313-.563-.313.25-.563.563-.438.5-.813 1.063-.188.25-.344.625t-.156.438l.063.063q.313.25.375.563zm2.812-2.375.438-.438q.625-.563.813-.813.438-.5.563-.938.063-.25.063-.75v-.313q.063.188.125.313.125.438.063.813-.125.75-.625 1.438-.25.375-.688.813t-.625.5l-.375.25.125.125q.125.188.125.313-.063.625-.438.938-.563.375-.656.531t-.094.344q.125-.125.281-.188t.25.031.094.219-.063.25l-.563.688q-.25.375-.344.75t-.031.813l.125-.313q.125-.375.313-.563.563-.875 1.25-1.188.438-.313 1.063-.438l.063-.375q.125-.438.344-.719t.563-.469.656-.25h.125q.438 0 .563-.063.438-.125.813-.625.313-.313.438-.688l.063-.313-.188.188q-.188.25-.344.344t-.844.156h-.188q-.25.063-.438.25l-.313.188q0-.125.063-.25.313-.563.813-.813.688-.313 1.031-.688t.344-1.125l.063-.5q.188-.75.875-1.375.625-.563 1.438-.813h-.5q-.563.063-1.125.313-.75.313-1.313.938l-.063.063q-.438.5-.813.406t-.375-.781V8.686q0-.313-.25-.813t-.563-.938q-.438-.625-.938-1.125-.438-.438-1-.688l.25.375q.5.438.625.813.313.75.313 1.563 0 1-.5 1.75-.25.313-.781.813t-.531.688q-.063.438.094.781t.094.656v.063q-.125.5-.313.813l-.688 1.125.5-.313.75-.625zm7.563.563q-.25.188-.438.5l-.188.25q-.188.25-.344.313t-.406.063l-.063.063h-.563q.188-.25.375-.563.188-.438.094-1.406t-.469-1.531q-.125-.188-.375-.375l.125.313q.063.125.094.563t-.031.938-.5 1l-.25.438q-.375.625-1.344 1.063t-1.594 1q-.188.25-.438.688l-.188.375q.25-.125.406-.281t.531-.344.688-.281.75-.063.75.125.625.344q.125-.313.375-.625.375-.5.813-.563h.188q.688-.063.969-.344t.469-.781l.125-.375q.188-.438.75-.875-.563 0-1 .375h.063zm-3.063 7.25q-.375 0-.625.375-.125.188-.313.625l-.125.438q-.125.188-.313.281t-.313-.031q-.313-.188-.125-.813.125-.25.688-.875l.25-.25q.813-1 .813-1.875 0-.563-.375-.938T22.374 18q-.938 0-1.438.688-.063.063-.094.063t-.094-.063q-.125-.188-.313-.375t-.344-.219-.281.031l.125.125q.125.188.063.313v.063q-.063.313-1.094.781t-3.031.469h-.063q-2 0-3.031-.469t-1.094-.781v-.063q-.063-.125.063-.313l.063-.125q-.063-.063-.25-.031t-.375.219-.313.375q0 .063-.063.063t-.063-.063q-.5-.688-1.5-.688-.563 0-.906.375t-.344.938q0 .875.813 1.875l.25.313q.563.563.625.813.25.625-.063.813-.188.125-.344.031t-.281-.281l-.188-.375q-.125-.5-.313-.688-.188-.375-.563-.375-.688 0-.875.625-.125.313 0 .594t.25.281v-.188q.063-.188.188-.344t.406-.156.406.438q.188.563.438.875.438.438.938.438.25 0 .438-.063l.125-.125q0 .438.125.813.25.563.75.938.188.125.563.313l.5.313q.375.25.688.625v.25q0 .125.281.344t.844.344q.75.25 1.844.25t1.781-.25q.563-.125.875-.344t.313-.344v-.25q.313-.375.688-.625l.5-.313q.375-.188.563-.313.5-.375.688-.938.188-.375.188-.813l.125.125q.188.063.438.063.5 0 .938-.438.25-.25.438-.875.125-.438.406-.438t.438.188.156.5q.125 0 .25-.281t0-.594q-.25-.625-.875-.625zM10.938 22.5q-.125.25-.375.313V22.5q-.063-.375-.438-.875l-.188-.125q-.563-.75-.688-1.125t.031-.719.406-.469q.438-.188 1 .281t.563 1.031q0 .375-.219.375t-.281-.094-.063-.219q-.188 0-.156.406t.344.531q.188.063.375 0v.313q-.063.313-.313.688zm10.187.313q-.25-.063-.375-.313-.438-.563-.313-1 .188.063.313 0 .375-.125.406-.531T21 20.563q0 .125-.063.219t-.281.094-.219-.375q0-.563.563-1.031t1-.281q.25.125.375.469t.031.719-.656 1.125l-.188.125q-.375.5-.438.875v.313z"/></symbol><symbol id="CRP" viewBox="0 0 32 32"><path d="M27.188 21.938q-.063-.5-.438-1.063t-.625-.313q.125.438-.188.563t-.5-.156.25-.719q-2.438-2.313-3.563-3.563l-1 .875q-.063.063-.156 0t.156-.5l.125-.188L8.374 3.999l-3.563 3.5.75 1.563.313-.25L6.437 10l.375-.313.563 1.25.313-.313.625 1.188.25-.313.563 1.188.313-.375.563 1.313.375-.375.563 1.25.313-.313.563 1.25.375-.375.563 1.25.375-.375.5 1.313.313-.375.563 1.188.313-.25.625 1.188.313-.313.563 1.188.313-.313.563 1.25.313-.313.625 1.188.313-.375.625 1.25.25-.313.625 1.25.313-.313.563 1.25 1.875-1.875.188.125q.25.188.563.188t.469-.094.156-.156-.063-.125q-.25-.25-.125-.625.25-.688 1-.25.375.188.438.656t-.156.813T23.511 25l-.875.938q-.563.5-.563.813 0 .563.625.938t1.438.313v-.313q-.125-.5.063-.875.5-1.125 1.563-2.25l.5-.563q.5-.5.688-.875.313-.5.25-1.188zm-4.063-1.188q-.563 0-.563-.563 0-.313.156-.469t.406-.156.438.156.188.406q0 .625-.625.625z"/></symbol><symbol id="BSM" viewBox="0 0 32 32"><path d="M6.625 14.25q-.063 0-.188-.125l-.813-1.063q-.125-.188 0-.375l.188-.188q.188-.25.375-.25h11.188q.563 0 .875.125t.438.25l.125.125q.125.188.219.094t.031-.219l-.125-.188q-.125-.188-.438-.344t-.875-.156H4.312q-.313 0-.313-.313v-.938q0-.313.313-.375h15.75q.125 0 .281.094t.219.219l.375.688q.125.375.25.375h6.563q.125-.063.219.031t.031.219l-.313.75q-.375.875-.938 1.625-.75 1-1.656 1.594t-2.281 1.031q-1.25.438-1.406.344t-.219-.344-.219-.219-.156.406q0 .125-.094.188t-.375.156-.656.469q-.563.625-.563 1.563 0 .563.406 1.063t.844.688.938.313q.25 0 .25.313v2q0 .313-.25.313h-3.5q-.313 0-.313-.313v-.438q0-.438-.969-.906t-1.781-.438-1.438.156q-.438.125-.688.25l-.25.188q-.125.063-.313-.063l-.125-.25q-.125-.25-.125-.375 0-.438.563-.938.438-.438 1.25-.688.375-.063.063-.188l-.375.063q-.438.063-.875.313-1.063.688-1.063 1.813v1.5q0 .313-.313.313H7.747q-.313 0-.313-.313V22q0-.125.094-.281t.219-.156l.625-.313q.75-.5 1.188-1.188.625-.875.625-2.063 0-1.75-1.25-2.813-1.063-.938-2.313-.938z"/></symbol><symbol id="ARM" viewBox="0 0 32 32"><path d="M25.438 22.625q-.125-.188-.75-.5-1.063-.5-1.563-.938-.25-.25-.25-.625v-.063q0-.25-.313-.25h-.75q-.125 0-.156-.094t.156-.219h.063q.25-.125.5-.344t.25-.281l-.188-.188q-.313-.25-.5-.625-.063-.063-.063-.438t.063-.625.375-.688q.063-.188.125-.938l.063-.938q.063-.25.219-.25t.281.125v.188l.125 1.813q.063.063.438.25.688.438 1.313.875.125.063.188.031t.063-.156q-.5-.75-.563-1.094t0-1.531l.063-1.125q.125-3.25-1.938-6-1-1.313-2.688-2.188-1.5-.813-3.063-1-.625-.063-1.625-.125-1.125-.063-1.75-.188-.5-.063-1-.375l-.25-.125h-.156l-.031.125.063.25q.5 1.25.563 1.75 0 .188.313.188.25-.063.594-.031t.469.063.219.219.031.188h-.125q-.75.125-1.219.313t-1.156.625q-.813.625-1.406 1.313t-1.156 2.5q-.313 1.063-.531 1.406t-.781.969l-.125.125q-.188.188 0 .188h4.844l.094-.219.188-.281q1.5-.938 2.563-1.563.5-.313.875-.313.75 0 1.313.375.688.438.563 1.188 0 .188-.031.188t-.094-.281-.438-.594q-.188-.188-.5-.313t-.875-.125q-.188.063-.813.438l-1.938 1.25q-.25.188-.25.5l-.063.188q-.188.375-.5.375h-4.75q-.125 0-.125.313l-.063.313q0 .5-.375 1.188l-.313.625q-.188.5-.563.938-.188.188-.156.281t.281.281l.25.188.438.375q.5.563.813.781t.938.594.781.531.156.344l.063.125q0 .063.188 0 .313-.188 1.188-.875.125-.125.188-.063t-.063.188l-.125.125q-.688.688-.813.844t0 .469q.313.563.688 1.125t.625.719.5.094l1.688-.875q1.688-.875 1.813-.938t.188-.031 0 .094l-4.063 2.688q-.063 0-.063.313 0 .563-.156.906t-.594.781q-.313.313-.438.375t-.125.125l.063.063q.063.125 2.563-.25.875-.188 1.813-.5 1.375-.5 2-1.063 1.188-1.063 2.25-1.938 1.625-1.188 2.25-1.438 1-.25 2-.25.813 0 1.563.25.125.063.188-.031t-.063-.156zM11.188 20.5l-.25.25q-.125.063-.313-.063l-2.563-1.688q-.125-.125.063-.188l.563-.125q.188 0 .375.125l2.125 1.5q.125.125 0 .188zm1-.687-.25.188q-.125.125-.25 0l-.875-.75-1-.688q-.063-.063.063-.063l.438-.063q.188-.063.25.063l1.563 1.188q.125.063.063.125zm.937-.688-.188.188q-.125.063-.25-.063l-1.313-1q-.188-.063 0-.125l.313-.063q.188-.063.313.063l1.125.813q.125.125 0 .188zm.875-.687-.125.188q-.188.063-.25 0l-.875-.625q-.188-.125 0-.188l.375-.063q.188-.063.375.125l.5.375q.125.125 0 .188zm-.75 7.937q-.313 0-.313-.375 0-.125.094-.219t.281-.094.25.313v.063q0 .125-.094.219t-.219.094zm3.063-1.875q-.188.063-.25.188t0 .25.031.156-.156-.063-.125-.219v-.25q.063-.313.344-.313t.281.125-.063.125h-.063zm.812-10.312q-.188-.313-.5-.406t-.563.063-.281.5.281.594q.063.125-.156.063t-.281-.125q-.25-.25-.219-.688t.344-.656.688-.188.625.344q.125.125.125.344t-.063.156zm2.188 8.687q-.125 0-.156.094t-.031.281v.125q0 .188-.156.094t-.094-.406.313-.313q.125 0 .188.031t-.063.094z"/></symbol><symbol id="GSM" viewBox="0 0 32 32"><path d="M16.563 10.25q0-.563-.313-1.125l-.25-.5-.25.5q-.313.563-.313 1.125t.313 1.125l.25.5.25-.5q.313-.625.313-1.125zm10.625 9.938q.375-1.063-.313-2.063Q26.5 17.5 26 17.25q-.25-.125-.438-.063l-.188-.813q-.375-.875-1-1.375-.813-.813-2.063-.813-.875 0-1.625.438h.063q.063-.375.063-.75.063-.563 0-1.063l-.313.063q-.313.125-.688.469t-.438.469q-.188-1.063-.75-1.656t-1.125-.594-.938.313q-.25.25-.438.563l-.125.313-.125-.313q-.188-.313-.438-.563-.375-.313-.938-.313t-1.125.594-.75 1.656q-.063-.125-.438-.469t-.688-.469l-.313-.063q-.063.5 0 1.063 0 .375.063.75h.063q-.75-.438-1.625-.438-1.75 0-2.688 1.5-.438.75-.563 1.5h-.188q-.25.063-.563.281t-.563.656q-.688 1-.313 2.063-.188.125-.375.375-.438.5-.438 1.094t.5 1 1.063.406 1-.25q.25.188.531.281t.719.188.656.094.406-.188q-.313-.063-.625-.25-.563-.375-.563-1.031t1.125-1.188 2.688-.531q1.063 0 1.813.188.563.188 1.125.563.5.313.781.625t.344.5l.125.438q.063.125.188.188l.125.063.125-.063q.125-.063.188-.188l.125-.438q.063-.188.375-.5t.75-.625q.625-.375 1.125-.563.75-.188 1.813-.188 1.563 0 2.688.531t1.125 1.188-.563 1.031q-.313.188-.625.25.188.188.406.188t.656-.094.719-.188.531-.281q.5.25 1.031.25t1.031-.406.5-1-.438-1.094zm-2.063-1.75.375-.625q.563.125.875.625.125.313.063.75l-.125.375q-.438-.25-.875-.375t-.813-.25zm-5.687-3.563q.063-.313.25-.625t.563-.563l.063.313q-.063.313-.125.563-.188.438-.813.938.063-.313.063-.625zm2.812-.125q.625 0 1 .25.313.188.5.438l.125.25-.563-.063q-.625-.063-1.063.031t-1 .406l-.438.25h-.813q-.375.125-.688.25l.375-.5q.563-.5 1.125-.875.75-.438 1.438-.438zm-5.875-1.375q.188-.438.469-.75t.594-.313q.563 0 .938.938.25.688.25 1.563 0 1.5-2.125 3.625 1-1.625 1-2.969t-1.188-1.719zM16 14.438q.125 0 .188.063.25.063.406.344t.156.844q0 .813-.375 1.75l-.375.75-.375-.75q-.375-.938-.375-1.75t.375-1.125q.188-.125.375-.125zm-1.437-2.125q.313 0 .594.313t.469.75l.063.375q-1.188.375-1.188 1.719t1 2.969q-2.125-2.125-2.125-3.625 0-.875.25-1.563.375-.938.938-.938zm-2.813 1.375q.063.125.188.188.25.188.406.438t.219.563q0 .313.063.625-.625-.5-.781-.906t-.094-.906zm-2 1.062q.688 0 1.438.438.563.375 1.125.875l.375.5q-.313-.125-.688-.25h-.813l-.438-.25q-.563-.313-.938-.375-.813-.125-1.688 0l.125-.25q.188-.25.5-.438.375-.25 1-.25zm-4.125 3.688q.313-.5.875-.625l.375.625.5.5q-.375.125-.813.25t-.875.375l-.125-.375q-.063-.438.063-.75zm.563 3.375q0 .188.063.375-.938-.438-.813-1.25.125-.5.719-.844t1.344-.469q.563-.063 1.125.125-2.438.875-2.438 2.063zm2.875-4.438q-.188.5-.063 1.25l-.438-.063q-.5-.188-.813-.563-.563-.625-.563-1.188 0-.125.281-.375t.719-.375q.625-.125 1.188.125.313.125.563.375-.625.25-.875.813zm2-.5q.688 0 1.5.625.438.25.75.563L12.688 18q-.75-.063-1.25-.063-.688.063-1.375.375v-.375q0-.438.219-.75t.781-.313zm2.5 2.125q-.188.125-.313.313l-.688-.125q-.938-.063-1.875 0 .688-.75 1.938-.75.938 0 1.313.438zm3.312 1.063q-.5.375-.875 1.063l-.25-.375q-.313-.438-.688-.688t-.875-.375l.125-.125q.188-.125.438-.125t.563.188q.375.375.688 1l.188-.375q.25-.375.5-.625.438-.313.813-.188.188.125.313.25-.5.125-.938.375zm1.875-.75q-.125-.188-.313-.313l-.375-.125q.375-.438 1.313-.438 1.25 0 1.938.75-.938-.063-1.875 0zm3.188-1Q21.25 18 20.5 17.938t-1.813.125l.75-.563q.813-.625 1.438-.625t.844.313.219.75v.375zm1-.938q-.25-.563-.875-.813.25-.25.563-.375.625-.25 1.188-.125.5.125.75.375t.25.375q0 .563-.563 1.188-.438.563-1.25.625l.063-.438q0-.5-.125-.813zm2.875 4.813v-.375q0-1.188-2.438-2.063.563-.188 1.125-.125.75.125 1.344.469t.719.844q.125.813-.813 1.25h.063z"/></symbol><symbol id="LTW" viewBox="0 0 32 32"><path d="M18.375 6.125q-.063 0-.25.063-.375 0-.563.125t-.281.406.094.438.563.125.438-.594q0-.25.125-.313.188-.313.313-.188l.125.188q.25.375.531.5t.875.219 1.156.031q1.438.563 2.938.125l.188.125q.438.438.75.469t.5-.125.375-.219q.375.125.938 0l.375-.125q.563.438.438 1.25-.063.313-.688.938-.875.813-1.063 1.438 0 .25.313.188.125-.063.188-.031t0 .219q-1 .875-1.438 2.188-.063.375-.563.75.063.375 0 1l-.063.375q-.375.5-.563 1.625-.125.75-.25 2.313 0 .313.125.688l.125.313q.125 1.75.938 2.625 0 .188-.156.25t-.156.375.125.469.313.281h.063l.063.25q.063.25.188.375.813.625 1.563 1.375-.125.688-.625 1.063-.5.125-1-.313-.188-.25-.344-.281t-.094.281-.063.313q-.25.063-.594-.156t-.594-.219q-.125-.438-.5-.75-.25-.188-.813-.438t-.813-.438q-.188.063-.188.094t.156.156-.031.25q-1.313-.375-2.188-.438-1.375-.063-2.125.375-.375.125-.625.563t-.563.438q-.438-.063-.75-.563l-.188-.313q-.188-.063-.375-.188-.375-.25-1.406-.281t-2.094.156q-.25 0-.563-.125l-.25-.125-.688.313q-.625.375-.875.563-.375.25-.563.75-.25 0-.594.156t-.531.188-.156-.219-.031-.25q-.188 0-.5.25-.438.375-.938.25-.375-.313-.563-1.063l.25-.188q.813-.875 1.375-1.188 0-.375.188-.688 0-.063.125-.125.313-.063.375-.5.063-.25-.125-.344t-.188-.406q.063-.188.25-.5.563-.875.625-1.875.063-2.313-.125-4.063l-.063-.25q-.188-.563-.313-.688 0-.25-.063-.656t-.063-.781q-.188-.438-.625-.75-.438-1.625-1.313-2.063-.063-.188.188-.25T5.684 11q-.125-.5-.375-.875-.188-.25-.563-.625-.563-.563-.75-.875-.063-.438.25-1l.125-.25q.188-.063.625.031t.688.094.469.219.469.188.563-.406l.313-.313q1.25.25 2.594.156t2.281-.531q.313-.188.563-.438.125-.125.25-.156t.375-.031q-.375.438-.063.719t.75.031q.125-.063-.031-.438t-.406-.563l.063-.063q.438-.5.688-.688.438-.313.938-.438 0-.063.219-.219t.219-.281q.688.375.938 1 .938-.063 1.5.875zM11.75 9.938q0 .063-.125.125-.25.313-.313.625.125.375.688.844t.563.844q.063.125-.188.094t-.094.219.438.25.656-.125q.438.5.75.563.125 0 .219.188t.281.188q.25-.313.156-.531t-.281-.469-.219-.438-.156-.563-.125-.688q-.25 0-.438-.25l-.063-.125q.063-.313-.219-.563t-.344-.438q-.438.063-.75-.438-.188-.25-.313-.313-.188.438-.125 1zm8.188-.5q-.125.125-.25 0l-.188-.063q-.188.125-.594.219t-.531.219h-.063q-.625.625-.656 1.094t-.188.938-.094 1.156q.563-.563.781-.656t.5-.125.469-.25.063-.781v-.125q1 0 1.125-1.563v-.125q0-.25-.063-.313l-.125.25q-.125.125-.188.125zM8.563 12.625q.125.063.438.094t.5.094.5.188q.813.375 1.063.25 0-.25-.344-.531t-.344-.438-.094-.281-.031-.25q-.25-.125-.438-.563t-.375-.563q-.25 0-.75-.25l-.563-.188q0 .813.094 1.531t.344.906zm15.5-2.312q-.063-.125-.219-.063t-.688.188-.688.25-.219.438-.313.5-.344.688.156.625.625-.125q.25-.188.313-.125.5.063.875-.188.125-.125.125-.688-.063-.875.375-1.5zM9.5 15.625q-.063 1.063.313 1.063.563 1.125 1.25 1.438.063-.25-.094-.438t-.156-.375q.438.188.625-.063 0-.063.031-.344t.094-.344l.125-.063q.188-.063.188-.188-.125-.188-.344-.344t-.344-.344q-.313-.375-.5-.5-.313-.25-.688-.25-.125-.125-.438-.25t-.406.063.156.469.188.469zm12.625-.75q-.25-.063-.438.063l-.25.063q-.438.188-.5.688-.188.063-.406.25t-.219.375q.188.125.188.5t.313.469.844-.281.844-.438q-.125-.688 0-1.063.063-.188.281-.344t.094-.469q-.25-.313-.688.125zm-5.25.438q.438.813.438 1.5 0 .375-.219.969t-.094.969q.25-.063.531-.406t.531-.531q0-.563.438-.875.313-.188.375-.375l-.25-.188q-.313-.313-.313-.625-.063-.063-.281-.094t-.25-.094-.188-.188-.219-.188-.125-.281-.375-.219v.625zm-3.5 1.5q.063.125.344.344t.219.594q.625.875 1.125 1-.063-1.563-.75-2.688-.375-.125-.625.125t-.313.625zm7.938 2.75h-.125q-.375.25-.563.5l-.188.688q-.313.813-.313 1.063-.125.563.125.563.25-.063.5-.5.188-.313.313-.438l.813-.5q.125-.5.5-.75.25-.25.313-.438-.375 0-.531-.125t-.344-.5q-.25-.438-.5-.5 0 .188-.031.438t.031.5zM9.688 20q0 .063.063.313l.188.438q.063.313-.063.688.188.438.469.563t.781.063l.063.063q.5.438.688.438.063-.125-.094-.531t-.188-.656-.281-.438l-.125-.125q0-.125.188-.219t.125-.281l-.125-.125q-.938-.563-1.563-.813-.188.438-.125.625zm3.562.813q-.25.438-.188.594t.313.344l.25.125q0-.313.313-.844t.313-.969q-.25-.063-.594-.313t-.656-.25q-.188.438-.156.625t.219.375.188.313zm5-.875q0 .125.094.25t.031.313q-.563.313-.688.938.063.688.375.688.188-.063.25-.313t0-.5l.188-.063q.313-.063.313-.125-.063-.375.188-.688.125-.125.156-.25t.031-.438v-.188q-.375-.063-.531 0t-.406.375zm2.625 2.625q-.25.563 0 .688.063.125.125.125l.25.063q.063-.25.313-.625l.188-.25q.188-.313.25-.5t-.063-.313q-.313-.063-.625.188t-.438.625zm-7.062 1.312q.063-.188-.063-.438t-.063-.438q-.125 0-.375-.063t-.5 0q-.125.375.188.688t.813.25zm4.5-.812q0 .25.219.375t.531.125q.188-.25.188-.625-.25 0-.5.063t-.438.063zm-2.875 1.5v.063q0 .375.094.531t.469.156q.125-.188.375-.531t.313-.531q-.188-.063-.438.063l-.188.125-.125-.188q-.063-.188-.313-.188 0-.188-.125-.313t-.313-.063v.125z"/></symbol><symbol id="WVR" viewBox="0 0 32 32"><path d="M27.938 26.875q-.063-.125-1.188-1.375l-1.125-1.25v-.875q-.063-.125-.25-.375-.313-.438-.313-.688t.25-.5l.25-.25-.313-.313q-.375-.313-.656-.313t-.438.281-.375.281-.281-.125-.031-.25.188-.281.219-.281q.188-.25.219-1.063t-.406-2q-.063-.188-.375-.188-.063.063-.469.406t-.5.406-.188 0-.094-.188.625-.813l.375-.438q.188-.313.125-.531t-.531-1.063-.719-1.031-.5-.063q-.125.063-1.375 1.25-1.375 1.313-1.5 1.406t-.125-.156q0-.063 1.156-1.344t1.281-1.531q.25-.313.094-.656t-.781-.906-.969-.719-.531-.031l-3.188 3.063q-.063.063-.094 0t0-.125 1.25-1.5 1.375-1.719.031-.5-.719-.625-.844-.469q-.375-.063-.625 0l-.75.75-.781.719-.156-.063v-.219l.875-1.125v-.063q.125-.125.094-.344t-.156-.281q-.313-.25-1.313-.313t-1.313.063q-.063 0-.5.375l-.375.313q-.375.125-.25-.313 0-.063.188-.25.313-.25.344-.5t-.281-.688l-.375-.375-.188.25q-.313.25-.531.281t-.656-.281q-.313-.25-.438-.25h-.875L7.248 5.994q-1.25-1.188-1.375-1.188-.313-.125-.406-.031t0 .313 2.344 2.656l.063.875q0 .125.188.375.375.438.344.688t-.281.5l-.25.25.375.375q.5.313.75.313.063 0 .219.063t.219.188-.125.563-.188.625.219 1.094.313 1 .313.063.313.063-.063.375-.156.406q0 .438.875 1.75.938 1.438 2.25 2.719t2.563 1.969q1 .563 1.563.563.313 0 .688-.313.063-.125.125-.094t.031.281-.031.313q.375.625 1.813.688 1.188.063 1.5-.125 0-.063.063-.063.313.125.188.5v.125q-.063.375.625 1l.25-.25q.25-.25.469-.281t.656.281q.313.25.438.25h.875l1.25 1.188q1.188 1.125 1.313 1.188.313.125.406 0t-.031-.375zm-9.375-3.125-.5.25q-1.938 1.188-3.5 1.25-2.125.063-3.313-2.188-.313-.5-1-2.5l-.438-1.125q-1.063-2.688-3-2.938-1.313-.125-2.125.625-.625.625-.688 1.313 0 .375.094.531t.313.156.281-.188q.188-.625.563-1.063.625-.563 1.5-.438 1.063.125 1.813 1.375.438.75 1.063 2.563.438 1.375.688 1.875.938 1.813 2.25 2.5 1 .563 2.375.438 2.438-.25 4.563-1.938l.125-.125q0-.063-.031-.156t-.438-.188-.594-.031z"/></symbol><symbol id="ALC" viewBox="0 0 32 32"><path d="M23.375 10q0 .063.125.188t.25.156.25-.094.219-.063.844.688q1.313 1 1.438 1t.438-.375.188-.594-.594-.656-.781-.563q-.125-.063-.313.063t-.281.094-.156-.156-.063-.188q.188-.25.219-.563t-.219-.469-.5.031q-.063.063-.313-.063l-3.563-2.938q-.938-.813-1.438-1.063-.75-.5-1.625-.438-.625 0-1.313.406t-1.063.844q-.625.75-.844 1.188t-.219.875q0 .25.375.469t.75.281h.5l.281.094-.375.188-.844.094q-.25-.063-.719-.219t-.656-.188-.344.188-.031.469l.063.125q.188.25.125.438l-.688 1.438q-.563 1.188-.938 1.688-.563.75-1.063.438-.188-.125-.125.063.125.875-.813 1.938-.75.875-1.25 1.063-.313.188-1 .125-.125.125-.063.25l.125.313q.125.25.094.406t-.344.344q-.125.125-.25.188-.125.25-.063.563.25.75 4 1.063 2.188.188 4.75.188 4.563-.063 6.031-.156t3.406-.531q.125 0 .188.031t-.063.156q-1.188.75-5.5.938l-.875.063q-1.938.063-2.688.063-7.688-.063-9.688-.875-1.063-.438-1.188-.688-.063-.125-.188-.125t-.125.063q-.063.688 1.125 1.375 1.063.563 2.125.688.063 0 .063.094t-.063.156-.281.188-.094.281.313.594q.313.813.656 1.281t1.156.969q.563.375.75.563.313.313.25.75 0 .25-.563.563-.375.125-.594.313t-.219.5q0 .5.844.906t2.313.5 1.844-.094q.125-.125.125-.469t.25-.594q.438-.25 1-.219t.938.344q.125.125.125.438t.156.469 1.094.156 1.813-.188q1.125-.188 1.625-.531t.438-.844q-.063-.25-.219-.375t-.469-.25-.5-.25-.219-.438.281-.625q.188-.25.813-.625.688-.438.875-.75.313-.375.75-1.375.375-.813.563-1.063.375-.438 1.375-.938.688-.313.875-.5.375-.313.375-.75 0-.25-.125-.375-.688-.688-1.938-1-.375-.063-.375-.125l-.063-.188.063-.25q.125-.75-.438-1.688-.5-.75-1.219-1.344t-.969-.594h-.25q-.375 0-.563-.063-.688-.375-1.25-1.563l-.438-.75q-.438-.875-.625-1.313-.063-.188.031-.313t.031-.313q0-.438-.625-.813l-.063-.063q-.5-.375-.5-1.094t.813-.844q.375-.063 1 .375.375.25 1.188.938l3.25 2.5q-.125.188-.125.375zm-2.312 3.375.063.031.125.094q.25 1 2.125 2.25.313.25.188.281T23.251 16h-.063q-.688-.188-1.313-.625-.813-.563-.813-1.438v-.063q-.063-.5 0-.5zm-4.313 3.188q-.375.313-.875.313t-.844-.25-.344-.75q.438.5 1 .5t.813-.438-.063-1.063q.563.438.563.938t-.25.75zm.75-1.875-.125-.125q-.438-.313-.719-.438T15.812 14q-.813-.063-1.438.5t-.594 1.344.844 1.344q-.75.125-1.25-.469t-.375-1.281q.188-1.063 1.156-1.594t1.969-.281 1.375 1.125zm-8.812.187q.125 0 .531-.531t.469-.719-.031-.25-.219.063l-.563.5q-.313.313-.375.625 0 .125.063.219t.125.094z"/></symbol><symbol id="CUL" viewBox="0 0 32 32"><path d="M27.063 19.563q1-1.188.938-3.25 0-1-.563-2.125-.688-1.375-1.75-2.188-1.375-1.063-3.125-1.063-1.125 0-2.125.875-.688.625-1.25 1.563-.813 1.438-.125 2.125.188.188.531.125t.531-.25.188-.125q0 .313-.406.625t-.906.313q-.688 0-1-.75-.125-.375 0-.969t.5-1.094q.563-.75 1.5-1.625.125-.063.125-.219t-.063-.281q-.5-.625-1.438-1.188-1.25-.688-2.75-.688-2.563 0-4.813 2.688l-.125.125q-.438.5-.813 1.375-.5 1.188-.063 1.75.313.313.75.25.25-.063.438-.219t.188-.094q.063.313-.438.688-.313.25-.875.188-.625 0-.875-.625-.188-.375-.094-1.031t.406-1.156 1.313-1.563l.125-.125q.188-.188.125-.406t-.25-.344q-.5-.25-1.125-.188l-.563.063-.75.188q-.875.313-1.688.75-1.063.688-1.75 1.625-.813 1.125-1 2.688-.063.75.188 1.656t.813 1.594q1.188 1.375 3.563 1.75l.25.125q2.5 1.5 6.156 1.5t6.094-1l.125-.063h.313q1.75-.063 2.875-.406t1.875-.906l.25-.25q.375-.25.563-.438z"/></symbol><symbol id="MIN" viewBox="0 0 32 32"><path d="M9.25 8.125q-.063-.063 0-.125l1.625-1.375q.063-.125.188-.063.25.188.563.188.813 0 1.063-.25l.563-.813q.5-.625.781-.844t1.844-.781l.188-.063q.125-.063.188.063l.25.438q.063.125-.063.188-.75.125-1.563.688-.375.25-.563.688-.125.188-.063 1.188v.188q0 .313-.375.75-.25.313-.25.531t.313.969l.125.188-.063.313.375.563-.063.188 1.813 2.063.063.125v.125l-.625.813q-.063.125-.031.188t.156 0l.375-.313.375-.438h.063l2.375 2.688q.125.063.063.188l-.875.938q-.063 0-.031.063t.094.063q.375-.25.688-.5l.375-.313q.063 0 .125.063l7.125 7.563-.313.313-.938 1.125q-.125.125-.063.125t.125-.063h.063q.688-.5.938-.75.188-.125.313-.313l.125-.125q.063-.063.125 0l.75.813q.188.188.125.375v.375q-.188 1.25-.25 1.313l-.125.125q-.375.375-.5.406t-.969 0-.938-.063-2.781-3.719l-4.063-5.5-5.25-6.563-.125.063q-.063.063-.125 0l-.438-.5q-.063 0-.125.031t-.125.031-.563-.375l-.5-.313q-.125 0-.188.063l-1.625 1.5q-.125.125-.5 1.063-.5 1.375-.938 2.125-1.063 1.938-2.75 3.5 0 .063-.063.063t-.063-.063l-.375-.375v-.125Q6 16.382 6.562 15.007t.688-3.063q.063-.375.063-.438l.5-.625.25-.438.063-.188q0-.25.063-.313 1.063-1.063 1.094-1.313t-.031-.5z"/></symbol><symbol id="BTN" viewBox="0 0 32 32"><path d="M27.25 27.063q-.375-.063-.688-.125-.938-.25-2.125-.719T22.249 25q.063-.313-.25-.875-.25-.313-.625-.75l-.313-.313q-.188-.188-.344-.563t-.188-.625.094-.438v-.063q.063-.25 0-.25t-.188.281-.125.719.25 1.25q.063.25.125.813l-1.125-.813q-.5-.375-.938-.813.188-.125.313-.25.313-.375.25-1.625t-.5-2-.75-1.063l-1-2q-.188-.438-.594-1.063t-.531-.75h-.063q-.438-.5-.469-.406t.281.406q.125.125.438.688t.531 1.094.406 1.281l.188.625-.125.313v.5l-.438-.75q-.313-.438-.625-.813l-.125-.75q-.25-.813-.438-1.25-.313-.625-.875-1.125-.063-.375-.188-.75-.25-.688-.75-1.563l-.125-.25q-.125-.188-.281-.406t-.188-.219.156.313l.063.125.438 1.188q.25.625.313 1.313l-.25.563-.563-.688q-.125-1.063-.438-2.031t-.813-1.844q-.25-.375-.5-.719t-.281-.313.219.469l.125.313q.5 1.063.438 1.75 0 .313-.188.688l-.438-.438-.688-.5q.25-1.063-.125-1.875-.125-.438-.438-.813l-.313-.625q-.313-.688-.688-1.094t-.438-.281l.625.875q.188.313.438 1.188l-.125.375-.063.375q-.563-.75-1.156-1.281t-.844-.469l.125.125q.75.688 1.188 1.375.75 1.25.563 1.875 0 .125-.25.188-.125-.938-.563-1.594t-1.25-1.281l-.688-.438q-.563-.688-.938-1.438-.25-.5-.563-1.313-.25-.5-.281-.5t.125.688.406 1.188l.688 1.625q0 .813.25 1.5.125 1 .344 1.5t.469.938q-.25-.063-.375-.125t-.469-.438-.594-.688l-.438-.5q-.438-.563-.469-.531t.25.531.656 1l.75 1 .125.438q.125.438.438.688.688.625 1.313.625l.5.75h-1.25q-.563-.313-1-.813l-.813-1.063q-.313-.438-.375-.406t.031.25.219.281l.188.25q1.063 1.563 1.563 2 1.313 1.25 2.125 1.563.375.188.75.25l.688 1.125-1.125-.063q-.063 0-.406-.188t-.656-.438q-.5-.438-1.25-1.25l-.25-.313q-.125-.188-.156-.188t.031.188l.125.25q.563.813 1.25 1.5.313.313 1.25 1l.188.188q.438.563.938.938.313.25.938.313l1.063 1 .125.375q.063.125.125.313l-.25-.063q-.313-.125-.75-.375-.875-.688-1.188-1-.438-.438-.5-.406t.25.406l.625.688q.5.625.75.813l.5.313q.625.438.75.563.25.375.75.75.75.563 1.688.688.75.125 1.375 0 .438-.063.875-.188l.25-.188.625.563q.313.25.563.5l-.625.063q-.375 0-1.094.125t-1.188.344-.906.531q-.188.188-.188.375.125 0 .25-.094t.5-.25.563-.156q.5 0 1.188.25.875.313 2.125.313.563 0 1.25-.188l.188-.063q.063 0 .75.5l1.25.75q.563.313 1.531.75t1.094.438q.25 0 .75-.438t.438-.5zm-19.187-15.5q-.125-.063-.313-.125-.375-.25-.563-.594t-.25-.656q.375.438.625.625t.5.25l.125.25v.125q0 .125-.125.125zM9.5 14.375q-.5-.25-.813-.75.25.063.469.063h.406l.75.875h-.25q-.313 0-.563-.188zm1.375-2.875.188.188q.25.188.469.5t.281.625 0 .5-.25.125l-.375-.375-.25-.313v-.5zm1.813 6.688q-.063.125-.563-.156t-1.063-1.094q.25.125.469.125h.406l.438.5q.375.438.313.625zm.875-3.5q.125.063.313.063l.063.688.25.875-.313-.063-.125-.188-.188-.188v-.563q-.063-.438-.188-.813zm1.062 6.625q-.125 0-.313-.125L13.999 21q-.438-.125-.688-.5.313-.063.563-.063l.438.063.75.75q-.188.063-.438.063zm2.188-1.125q-.25-.313-.438-.625l-.313-.375q0-.313.063-.563t0-.688q.125 0 .5.531t.406.938-.219.781z"/></symbol><symbol id="FSH" viewBox="0 0 32 32"><path d="M24.688 22.063q-.25-.125-.75-.313-.813-.313-1.125-.563l-.25-.188q-.938-.625-1.25-.875-.813-.75-1.063-1.375-.125-.25-.625-1.125l-.313-.5q-.438-.688-.5-1l.813.875.125.25q.25.438.375.563.063 0 .094-.031l.031-.031q-.063-.5 0-1.063t.25-.938q.063-.125-.063-.188-.875-.375-1.75-1.063l-.625-.5q-.625-.375-.875-.75.125.063.688.375l.313.188.688.438.031-.031.031-.094-.125-.313q-.25-.75-.25-1.313-.063-.188-.188-.375-.625-.438-1-1.188L17 10.31q-.813-1.063-1.063-2.125-1.688.188-3.188-.188-.125 0-.625-.313-.938-.563-1.375-.75t-1.125-.375l-.375-.125q-.313-.125-.813-.188l-.313-.063q-1.375-.25-2.688-.688-.375.563-.438 1.313 0 .438.063 1.313l.063.5q.063.563.156.844t.406.906q.25.5.313.75l.313 1.188.188.438q.188.438.188.688.25 0 .469-.281t.406-.281q.938.063 1.313 0 .625-.063 1-.313.75-.563 1.375-1.813.063.25-.25.813l-.188.5-.125.625q-.125.625-.281.688t-.719 0l-.938-.125q-.625-.125-.844-.125t-.344.125q-.25.188-.438.5-.063.063-.063.188t.125.313l.5.688q.313.438.375.594t.063.656.125.688q.063.125.25.375l.188.188.313.563q.438.688.688.875 0 .063.094.031t.094-.094q-.25-.688-.25-1.688v-.188q.063-.813 0-1.188-.063-.125-.188-.438t-.125-.5q.875 1.063.625 2.563l1.75 1.25q.25.188.563.75l.313.5q.438.625.75.875.688.688 1 1.188 0 .063.063.063h.063q.25-.438.75-.688.625-.313.813-.281t.375.156l.188.125h.188v-.125q-.125-.313-1.375-1-.188-.063-.5-.188-.5-.125-.688-.313.875.063 2 .563.688.313 1.875 1.063l.25.125 1.063.813q.313.125.719.125h.719q.063-.063.25-.188t.375-.125l.188.188q.438.25.5.563-.375-.25-.625-.281t-.563.094q-.625.188-1.188.063.125.313.438.688t.438.594.25.656l.25.75q.25.563.688 1.313l.063.125q.438.875.938.938-.188-.563-.063-1.063.063-.313.281-.813t.25-.719.031-.531v-.5q.188 0 .5.125t.5.094.563-.219q.625-.375 1-.438.188 0 .75.063l.375.063q-.813-1.063-2.313-1.75zM8.625 8.5q-.125.063-.406.094t-.406-.031q-.25-.188-.313-.5t.094-.438.469-.063l.438.188q.125.063.188.313t-.063.438z"/></symbol><symbol id="PLD" viewBox="0 0 32 32"><path d="M24.25 4.438q-.25 0-1.031 1t-1.031 1H17.75q-.125 0-.625-1.063l-.188-.438q-.313-.563-.625-.813l-.313-.125-.313.125q-.313.25-.625.813l-.188.438q-.5 1.063-.625 1.063H9.81q-.25 0-1.031-1t-1.031-1q-.438 0-.844.438t-.406 1.125v8.25q0 3.063 1.063 5.625 1 2.438 2.813 4.188 1.5 1.438 3.688 2.813 1.063.688 1.938 1.125.813-.438 1.938-1.125 2.188-1.375 3.688-2.813 1.813-1.75 2.813-4.188 1.063-2.563 1.063-5.625v-8.25q0-.688-.406-1.125t-.844-.438zM15 24.563q-.313-.188-.688-.375-.813-.563-1.563-1.188-1.063-.938-1.875-1.938-1-1.25-1.5-3-.375-1.375-.375-2.563v-7h6v16.063zm6.125-3.5q-1.125 1.438-2.75 2.625-.813.563-1.375.875V8.5h6v7q0 1.188-.375 2.563-.5 1.75-1.5 3z"/></symbol><symbol id="MNK" viewBox="0 0 32 32"><path d="M16.813 7.5q1.188-1 1.75-2.375.313-.625.313-1.125h-.563q-.688.125-1.375.375-1 .375-1.875 1.063l-8.938 7.563q-1.25 1.063-1.813 2.375-.25.688-.313 1.125h.563q.688-.063 1.375-.375 1-.375 1.875-1.063l4.5-3.813zm4.562 5.438q.813-.75 1.375-1.625.375-.688.563-1.313l.125-.563h-.563q-.688.063-1.375.375-1 .375-1.875 1.063l-9 7.563q-.813.75-1.375 1.625-.375.688-.563 1.313l-.125.563h.563q.688-.063 1.375-.375 1-.375 1.875-1.063l4.5-3.813zm2.813 3.375-4.5 3.813-4.5 3.75q-1.188 1-1.75 2.375-.313.625-.313 1.125h.563q.688-.063 1.375-.375 1-.375 1.875-1.063l8.938-7.563q.875-.75 1.438-1.625.375-.688.563-1.313l.125-.563h-.563q-.688.063-1.375.375-1 .375-1.875 1.063z"/></symbol><symbol id="WAR" viewBox="0 0 32 32"><path d="M28 16q-.063-.438-.063-.813-.125-1-.375-2.063-.375-1.375-1-2.563-.813-1.563-2.375-2.906t-2.25-1.156q-.5.188-.813.469t-.438.969l-.125.688q-.125.688-.313 1.063-.188.5-.75 1.125t-1.438.938q-.625.188-1.438.25h-.625q-.625.063-1.375-.063-1.375-.25-2.063-1.063-.625-.688-.813-1.188-.188-.375-.313-1.063l-.125-.688q-.125-.688-.438-.969t-.813-.406q-.688-.25-2.25 1.094t-2.375 2.906q-.625 1.188-1 2.563-.25 1.063-.375 2.063L3.994 16q0 .75.188 1.813.375 2 1.219 3.594t2.406 2.938 2.313 1.156q.438-.188.75-.469t.438-.969l.188-.688q.125-.688.25-1.063.25-.5.813-1.188.688-.813 2.125-1.063.75-.125 1.313-.063.688-.063 1.375.063 1.438.25 2.063 1.063.563.688.813 1.188.125.375.25 1.063l.188.688q.125.688.438.969t.813.406q.688.25 2.25-1.094t2.375-2.906q.875-1.688 1.25-3.75Q28 16.688 28 16zm-3.687 4.063q-.688 1.313-1.5 2.063l-.25-.625q-.25-.75-.688-1.375-.625-.938-1.438-1.438-1-.625-2.188-.938-.813-.25-1.625-.25h-.625q-.563-.063-1.438.063-1.563.25-2.938 1.125-.875.563-1.438 1.438-.438.625-.75 1.375l-.188.625-.563-.563q-.563-.688-1-1.5t-.625-1.875q-.188-.75-.25-1.563V16q0-.625.063-1.375.188-1.563.813-2.688.438-.813 1-1.5l.5-.563.25.625q.25.75.688 1.375.625.938 1.438 1.438 1.438.875 3.063 1.125.813.125 1.375.063.625.063 1.438-.063 1.625-.25 3-1.125 1.125-.75 1.875-2.188.375-.688.5-1.25l.5.563q.563.688 1 1.5.625 1.125.813 2.625.063.813.063 1.438.063 2.313-.875 4.063z"/></symbol><symbol id="PGL" viewBox="0 0 32 32"><path d="M27.188 20.75q-.313-.313-.688-.563-.125-.125-.25 0l-1.625 1.625q-.125.125-.313.063 0-.125.063-.313l.625-.625q.75-.813.875-1t0-.313q-.688-.625-.844-.688t-.281-.063q.125.5-.188.875-.188.25-1.375 1.375l-.125.125q-.688.688-.563 1.875v.219l-.125-.031q-.375-.063-.719-.063t-.781.125l-.375.188.25-.25q.375-.313.688-.375h.5l.25.063q-.125-.438 0-.906t.5-.906l1.125-1.188q.125-.125.063-.375l-.063-.125q-.063-.125 0-.313t.125-.125q.188.188.344.063t-.094-.375l-3.25-2.813q-.125-.125-.188-.031t-.031.188-.094.156-.313.031-.313-.219q-.313-.313-.781-.313t-.844.375q-.5.563-.313 1.875.063.625.25 1.188-.625-.25-1.219-.406t-1.156-.156q.438-.25 1-.25.188 0 .5.063l.25.063q-.125-.563-.125-1.125-.063-1.063.75-1.75.5-.375 1.25-.313.25 0 .563.188l.313.25.063-.25q.063-.188.031-.313t-.219-.313l-.188-.313q-.125-.188-.125-.563v-.25q-.188-.125-.938 0h-.125q-.125 0-.25-.125l-.125-.125q-.25-.188-.313-.125t-.063.188l-.063.188q0 .063-.25.313l-.688.563q-.75.688-.844 1.125t.031 1.313l-.5-.063q-.5-.125-.844-.125t-.719.125l.25-.188q.25-.188.469-.25t.531 0h.313v-.563q0-.688.375-1.188.25-.25.875-.75l.25-.25q.313-.313.25-.75 0-.125-.188-.5l-.125-.313q-.063-.188-.125-1 0-.563-.063-.625l-.688-1.5q-.438-1-.938-1.281t-1.688-.281h-.188q-.313 0-1.188-.188h-.063q-.813-.188-1.25-.063t-1.25 1.25l-.125.188q-.125.125-.406.313t-.344.313-.063.375.156.375.406.188l.188.063-.188.063q-.25 0-.5-.094t-.438-.406q-.063-.125.031-.531t.156-.469l.313-.25q.563-.5.75-.75l.438-.625q.25-.313.313-.375.313-.25.563-.25t.438.125h.063q.375.188.625.188t.594-.031.656.094l.188.063q.375.125.625.156t.344-.031-.031-.313-.313-.375q-.375-.25-1.563-1.625l-.063-.063q-.813-.875-2-.875-.438 0-.875.313-.25.188-.563.594t-.5.469l-.125.063q-.813.063-1.313.563-.438.375-.5 1.313v.125q0 .063-.375.438l-.5.5q-.188.25-.313.563l-.063.188q-.188.688-.063 1.438-.125.063-.25.188-.625.688-.625 1.813.063.688.375 1.125.25.313.875.813l.25.25q.625.5 1.688.938.813-.063 1.156-.25t.594-.688l.063-.188.125-.063q.688-.25.875-.375.563-.5.563-1.125l.375-.125q.438-.188.563-.5t.188-.75l.063-.25q.125-.375.25-.813l-.438-.438q-.25-.188-.563-.25l.188-.188.125-.25.313.25q.375.25.688.313.438.063.938.063.25-.063.25.063t-.031.219-.094.094h-.5q-.063.063-.188.281t-.188.406l-.125.313q-.313.875-.313 1.188-.25 1.25.188 2 .313.563.875 1 0 .063-.156-.031t-.406-.219q-.375-.313-.625-.656t-.313-.75-.063-.781q-.188-.125-.688.375-.125.125-.344.5l-.219.375-.25.063q-.625.188-.875.375-.125.063-.375.375t-.313.375q-.25.188-1.063.188.063.375.281.656t.656.656.781.469.938.125 1.094.219q.25.125.5.438.125.125.188.125l.313-.125q.375-.25.5-.188t0 .188l-.563.688q-.125.25.063.438l.063.125q.125.063.125.125l-.063.125q-.125.75.063.938h.188q.375.063.563.125l.313.25q.25.125.313.125.25.063.375-.063l3.5 4q.125.125.094.406t.031.406q.438.438 1.625 1.813.188.188.438.063l-.063-.125q0-.25.25-.5l1.75-1.688q.563-.563.5-1.625 0-.188.031-.219t.281-.031q1 0 1.563-.563l1.938-1.875q.313-.375.625-.25l.063-.125z"/></symbol><symbol id="BRD" viewBox="0 0 32 32"><path d="M11.813 20.875v-9.938q0-.438-.75-.563l-.375.125q-.375.188-.375.438v9.938q0 .25.375.438l.375.125.375-.125q.375-.188.375-.438zm3.875 0v-9.938q0-.438-.75-.563l-.375.125q-.375.188-.375.438v9.938q0 .25.375.438l.375.125.375-.125q.375-.188.375-.438zm3.937 0v-9.938q0-.438-.75-.563l-.375.125q-.375.188-.375.438v9.938q0 .25.375.438l.375.125.375-.125q.375-.188.375-.438zm3.813-17.187q-.563 0-1.063.406t-.5.719-.188.375-.563.063H9.561q-1.188 0-2 .875-.313.313-.5.719t-.188.781q0 .625.219.969t.844.344q.438 0 .813-.188.188-.125.5-.438.438-.438.688-.438h10.5q.563 0 1 .313.563.375.563 1.125v11.063q0 .625-.813 1.75-.938 1.25-2.188 2-1.563 1-3.25 1-3.688 0-6.25-1.938l-.063-.063q-.25-.188-.563-.25t-.469.094 0 .75.469.906q.75.813 2.188 1.688 2.313 1.375 4.688 1.375 1.75 0 3.844-1.156t3.531-2.781q1.5-1.75 1.5-3.25V9.751q0-.375.25-.938t.25-.938V5.25q0-.438-.594-1t-1.094-.563z"/></symbol><symbol id="WHM" viewBox="0 0 32 32"><path d="M14.813 11.688q.875 0 1.5-.625t.625-1.469-.625-1.469-1.469-.625-1.469.625-.625 1.469.625 1.469 1.438.625zM16.688 4q-.375-.063-.719.063t-.406.344.063.469.375.375l.188.125q2.938 1.313 2.938 4.313 0 1.688-1.156 3.063t-2.844 1.375q-1.25 0-2.25-.438-.563-.188-1.313-.75l-.125-.125q-.563-.375-.875-.063-.188.25-.063.75t.313.75q1 1.188 3.313 2.125h.063q.813.313.813.813v8.5q0 .813.344 1.563t.656.75.625-.75.313-1.563v-8.375q0-.313.25-.75t.563-.563q1.063-.5 2.125-1.813 1.688-2 1.688-4.625 0-2.125-1.438-3.688T16.691 4z"/></symbol><symbol id="BLM" viewBox="0 0 32 32"><path d="M25.063 4.688q-.563.375-2.875 2.063L19.5 8.689q-1.625 1.188-2.313.625-.313-.375-.375-.938t.125-1.031.813-.969l.188-.188q.125-.125.094-.5t-.25-.594-1.219.094-1.938 1l-.313.313q-1.75 1.313-2.875 2.313-2.438 2.25-4.563 5.313-1.75 1.438-2.469 3.531t-.219 4.281T6.28 25.72t3.781 2.094 4.313-.219 3.5-2.469q3.125-2.188 5.25-4.563 1-1.063 2.313-2.813l.313-.375q.75-.938 1.063-1.938t.094-1.219-.625-.25-.531.156l-.125.125q-.563.625-1.031.813t-1.031.156-.875-.406q-.625-.688.625-2.313l1.938-2.625q1.688-2.375 2.063-2.938.5-.813.625-2.875l.063-.063-1.125.125q-1.313.188-1.813.563zM11.813 25.5q-2.188 0-3.75-1.563T6.5 20.187t1.563-3.75 3.75-1.563 3.75 1.563 1.563 3.75-1.563 3.75-3.75 1.563zm9.75-13.375q-.875 1.313-1.125 2.25-.25 1.125.375 1.875.5.563 2.125.438.75-.063 1.438-.25-.313.5-.75 1l-.25.313q-.813 1.063-1.5 1.75-.875.875-2.375 2.063.375-1.875-.219-3.719t-1.938-3.188-3.188-1.938-3.719-.219q1.188-1.5 2.125-2.375.625-.688 1.688-1.5l.375-.25q.438-.438.938-.813l-.125.75q-.188.875-.125 1.5.063.938.438 1.313.75.688 1.875.375.938-.188 2.25-1.063t6.375-4.688l-.063.063q-3.813 5.125-4.625 6.313z"/></symbol><symbol id="ACN" viewBox="0 0 32 32"><path d="M23.875 14.438q0-2.938-1.969-5.125T17 6.75q-.125-.188-.25-.313l-.25-.125q-.125-.125-.125-.219t.25-.344q.125-.188.344-.313t.219-.156T17 5.124l-.438-.438-.313-.438-.188-.25-.188.25-.313.438-.5.438q-.188.125-.188.156t.219.156.406.313q.25.25.25.344t-.188.219l-.188.125q-.188.125-.313.313-1.75.188-3.25 1.188-3-1.688-3.563-.938-.25.313 0 1.438t.938 2.313q-.938 1.75-.938 3.719t.938 3.719 2.625 2.813 3.625 1.25q-.313.063-.719.313t-.406.5.438.5.438.438q0 .563-.813 1.063-.188.125-.563.25l-.188.125q-.125.125-.125.25v.313q0 .188.188.188h1.438q.188 0 .188.156t-.625.219l-1.188.063h-1.438q-.25 0-.813.5t-.563.688.313.188H21.12q.313 0 .313-.188t-.594-.688-.844-.5h-1.438v-.938q0-.125-.063-.25l-.25-.125q-.375-.125-.563-.25-.75-.5-.75-1.063 0-.188.406-.438t.406-.5-.375-.5-.75-.313q1.688-.125 3.188-.938 1.188.625 2.25.844t1.375-.031q.75-.5-.875-3.438 1.313-1.938 1.313-4.25zm-1.062 0q0 1.75-.813 3.25l-.063-.125q-1.188-1.875-3.188-3.938-.125-1.938-.625-3.438-.563-2-1.438-2.438 2.625.25 4.375 2.188t1.75 4.5zm-5.188-2q-1.375-1.375-2.875-2.563.563-.813 1.25-.813 1.188 0 1.625 3.375zm1.125 2.75q.438.563.625.875.75 1 1 1.813.438 1.063 0 1.5t-2.313-.313q.563-1.688.688-3.875zm-3.125-7.5q-.813.375-1.438 1.75-.688-.5-1.375-.938 1.313-.688 2.813-.813zm-6.375 6.75q0-1.375.563-2.625l.25.313q.938 1.188 1.75 2.188.688.813.75.719t-.125-.344l-.188-.25q-1.875-3.688-1.188-4.375t2.75.625q-.25.938-.375 1.875.25 0 .375-.438.125-.625.375-1.188l1.688 1.188q-.813.063-1.438.563t-.844 1.313.063 1.563.938 1.219 1.5.438 1.469-.469q-.25 1.625-.688 2.438-.375.688-.875.688-.938 0-1.563-1.375-.438-.813-.625-1.75-.063-.25-.188-.375l-.188-.063.188 1.125q.25 1.313.688 2.188.563 1.313 1.375 1.625-2.688-.188-4.563-2.125t-1.875-4.688zm7.438 6.75q.563-.25 1-1.313l1.063.813q-1 .438-2.063.5z"/></symbol><symbol id="SMN" viewBox="0 0 32 32"><path d="M24.813 11.063q-.063-.125-.156-.375t-.281-.375-.813-.156-.75.844q-.125.5-.063 1.625v.563q-.063.5-.625.688-.313.125-1.063.188h-.063q-.25 0-1.063-.375-.5-.25-1.688-1-1.438-.813-2.125-1.188-1.313-.688-5.5-4.063-1.5-1.188-1.813-1.375l-.5-.375q-.625-.438-.906-.531t-.594.281q1.813 4.063 2.875 7.75.875 3 1.313 5.688.25 1.875.313 3.438l-.063 1.125-2.875.063q-.75 0-.906.25t.156.813q.063.25 1.375.563 1.5.375 3.188.438 2.25.125 4.125-.313 2.313-.5 4-1.813 3.813-3.75 4.625-7.625.438-2.063-.063-4.5zM13.188 22.688q-.125-3.25-.625-6.188-.625-3.5-1.625-5.625l1.625 1.5q1.875 1.625 2.813 1.938l1.125.438q1.938.688 2.875 1.063 1.5.75 1.75 1.438l-.313.438q-1.313 2.063-2.5 3.125-2.125 1.813-5.125 1.875z"/></symbol><symbol id="SCH" viewBox="0 0 32 32"><path d="M26.875 14.188q-.25-.375-.5-.625-1.125-.313-1.563.563-.188.438-.219 1.031t.031.844q.438.938.438 1.5 0 1.063-.781 1.844t-1.844.781-1.813-.781-.75-1.844q0-1.625 1-2.75.625-.688 2.25-1.688l1.125-.75-.125-.063q-1.188-1-2.438-1.375-2.063-.688-5.688-.688t-5.688.688q-1.25.438-2.438 1.375l-.125.063 1.125.75q1.625 1 2.25 1.688 1 1.125 1 2.75 0 .688-.344 1.281t-.938.969-1.281.375-1.313-.375-.969-.969-.344-1.219T7.371 16q.063-.25.031-.844t-.219-1.031q-.438-.875-1.563-.563-.25.25-.5.625-.438.688-.75 1.5-.375 1-.375 1.813 0 1.938 1.219 3.469t3.125 1.969 3.656-.438 2.594-2.656.375-3.656-2.031-3.063q.75-.313 1.563-.438.5-.125 1.5-.125t1.5.125q.813.125 1.563.438-1.563 1.188-2.031 3.063t.375 3.656 2.594 2.656 3.656.438 3.125-1.969 1.219-3.469q0-.813-.375-1.813-.313-.813-.75-1.5z"/></symbol><symbol id="ROG" viewBox="0 0 32 32"><path d="m6.75 15.625-1 2.188-1-.438q0-.375.063-.75.125-.75.563-1.313.25-.313.563-.563l1 .438zm.5 2.125q-.25-.125-.625-.188h-.25l.75-1.688.188.125q.313.25.563.344t.969.313T9.876 17q1.25.563 2.313 1.313l-.563 1.313q-1.25-.313-2.5-.875-.375-.125-1-.5t-.875-.5zm8.438 5q.25.063.875.188 1.188.188 1.906.469t2.281 1.094q1.313.75 2 1.063 2.063.875 4.313.938 1.125.063 1.875-.063l-.563-.688q-.688-.875-1.563-1.563-1.25-1.063-2.75-1.688-.625-.313-2.063-.813-1.688-.563-2.375-.906t-1.688-1.094l-.688-.5-1.938-1.25-1.875 4.188zm-.75-6.125-2.75 6.125-.688-.313.938-2.125-.313-.188q-.125-.063-.188-.188l.75-1.625q.125-.063.25 0l.313.125 1-2.125zm11.062-2-.938 2.188 1 .438q.313-.25.563-.563.438-.563.563-1.313.063-.375.063-.75l-1-.438zm-1.812 1.063q.188.063.5.313l.188.125.75-1.688h-.25q-.375-.063-.625-.188t-.875-.5-1-.5q-1.188-.563-2.5-.875l-.563 1.313q1.125.75 2.313 1.313.313.125 1.031.344t1.031.344zm-9.438-2.875q-.25-.125-.688-.5-1-.75-1.688-1.094t-2.375-.906q-1.438-.5-2.063-.813Q5.873 8.562 4.248 7q-.75-.813-1.188-1.438l.875-.063q1.125-.063 2.25.125 1.563.188 3.063.813.688.313 2 1.063 1.563.813 2.281 1.094t1.969.469l.813.188q1.313.375 2.25.625l-1.813 4.188zm5.063-3.563-2.75 6.125.688.313 1-2.125.313.125q.125.063.25 0l.75-1.625q-.063-.125-.188-.188l-.313-.188.938-2.125z"/></symbol><symbol id="NIN" viewBox="0 0 32 32"><path d="M18.688 22.313q.188-.125.438-.313.313-.313.563-.625.5-.563.875-1.25 1.125-1.938 1.125-4.125.063-2.938-1.938-6.063-1.313-2.063-3.375-3.438-1.625-1-3.625-1.563-1.375-.375-2.875-.438l-1.188-.063.813.188q1 .25 2 .688 1.438.625 2.688 1.625 1.563 1.313 2.813 3l-.563-.188-.688-.188q-.938-.188-1.938-.125-1.313.063-2.563.5-1.563.563-2.875 1.75-1.563 1.375-2.688 3.563t-1.25 4.625q-.125 1.875.438 3.875.375 1.438 1 2.75l.625 1.063-.25-.75q-.313-1-.438-2.125-.125-1.563.125-3.125.25-2 1.188-3.938l.063.563q.125.625.438 1.188l.188.563q1.063 2.063 2.938 3.25 2.625 1.75 6.563 1.563 3.188-.125 5.875-1.938 1.875-1.25 3.313-3.188.75-1 1.063-1.688l-.5.563q-.688.75-1.625 1.438-1.25.875-2.75 1.5-1.875.688-4 .875zm-4.438-1.125q-1.875 0-3.188-1.344t-1.313-3.219 1.313-3.188 3.188-1.313 3.219 1.313 1.344 3.188-1.344 3.219-3.219 1.344z"/></symbol><symbol id="MCH" viewBox="0 0 32 32"><path d="M24.188 15.313q-.438-.438-1-.813L9.875 5.062q-.563-.438-.938-.5-.875-.313-1.438.688-.438.75.313 1.313l11.438 8.188.563.375q1.063.625 1.5 1.188-.313.313-.625.5-1.75.875-1.969 1.719t.844 2.406q.5.625 1 1.188.813.813-.25 1.688-.5.438-.688.375t-.688-.875q-.75-1.125-1.063-1.75-.5-1-1.438-.5-.688.375-.188 1.375l1.125 2.25q.75 1.25 1.438 2.125.625.688 1 .688t.938-.688q.438-.563 1.188-1.688l.375-.5q.688-1 .844-1.438t-.031-.875q-.188-.313-.938-1.25l-1-1.063q-.625-.688-.719-.938t.344-.5q.313-.188 1.688-.688l.125-.063q.375-.125 1.063-.5l.125-.063q.875-.438.875-.875t-.5-1.063zm-6.563 1.875q.188-.813-.031-1.375t-.906-1.063q-1.25-.813-3.813-2.625l-3.5-2.438q-.313-.25-.688-.25t-.469.344 0 .813.313.719.469.438l.375.188q3.75 2.625 5.688 3.938l.063.063q.563.438.813.688.375.438.25 1-.063.313-.281.688t-.531.438-.625-.156-.25-.531q.063-.875-.25-1.25t-1.125-.625q-.25.625-.313 1.438 0 .438.063 1.375v.313q.063.75.438.969t1.125.094q1.563-.188 2.188-.813t1-2.375z"/></symbol><symbol id="DRK" viewBox="0 0 32 32"><path d="M10.313 16.875q2.375-.75 3.313-1.75t.813-2.875q-1.125.313-3.563 1.375Q7.688 15 6.063 15.313q.688-.75 1.813-1.5.688-.5 2.125-1.375 2.063-1.313 2.875-2-1.438-1-2.25-1.688-1.188-.938-1.875-1.938 1.25-.125 2.563.375.75.25 2.188 1l.938.5q.313-.625.5-1.5.125-.5.25-1.625.313-2.063.75-3 .5 1.125.938 3.563.25 1.688.5 2.5.625-.25 1.75-.688 1.25-.563 1.938-.75 1.063-.375 2.125-.438-.688 1.063-1.813 2-.875.75-2.375 1.625.813.688 2.938 2.063 2.938 1.813 4 2.875-1.25-.188-2.938-.875-1-.375-3-1.219t-2.813-1.156q-.188 1.75 1 3.031t3.5 1.844q-.438.563-1.438 1.75-1.188 1.438-1.688 2.125-.813 1.25-1 2.313l-.125.25q-.875 4.063-1.625 6.063l-1.313-6.25q-.313-1.25-1.375-2.75-.563-.938-2-2.625zm5.625-1.562q-.563.313-1.25 1.063l-.438.5q-.5.438-.125 1l1.625 2.5q1.313-1.5 1.656-2.281t-.031-1.406q-.25-.375-1.438-1.375z"/></symbol><symbol id="AST" viewBox="0 0 32 32"><path d="M16.625 10.5h-7.75q-.563 0-.781.188t-.156 1.063q-.125 1.938 0 5.438 0 .438.281.656t.688.219.656-.25.25-.625q.063-.938.125-2.813v-.063q0-1.25.313-1.563.188-.25.938-.188h.063q1.563.125 3.063.063.813 0 1.156.344t.344 1.656l.125 5.688q0 1.313-.063 1.688-.125.438-.5.531t-1.5.094l-2.313-.063q-.938 0-1.25-.063t-.406-.344-.031-1.094v-1.063q0-.063-.125-.188l-.25-.25q-3.938 2.5-5.063 6.813 1.688-1.75 3-2.813l.188-.188q.375-.438.563-.469t.031.688.656.969q.438.125 1.438.125h5.438q1.438-.063 1.844-.438t.406-1.813l.125-9.125q0-.563-.125-1.438-.125-1.375-1.375-1.375zm5.313.688q-.375-.438-.25-1.625V9q0-1.125-.156-1.5t-.563-.5-1.531-.125l-6.313.063q-1.063 0-1 1 0 .813.875.875l5.5.188q1.375 0 1.313 1.375v9q0 .813.625.875.875.063 1.125-.688.125-.5.125-1V18q.063-1.25 0-1.875.063-1.563.375-2.313.375-.875 1.25-1.5.625-.375 1.875-1.063 1.563-.875 2.375-1.438-1.563-.313-3.094.063t-2.531 1.313z"/></symbol><symbol id="SAM" viewBox="0 0 32 32"><path d="M24.75 23.625q-2 2.375-4.875 3.281t-5.813.344q-1.188-.188-2.063-.625-1.688-.75-.813-1.625.438.25 3.375.438 2.063.188 4.063-.563t3.563-2.313q.938-1 1.125-2.313.188-1.438-.688-2.688-.563-.75-1.469-1.063t-1.594-.063q-.813.313-.938 1.25l-.063-.063.375 2.625q.188.813-.125 1.125-.25.125-.813.125h-3.938q-.563 0-.75-.125-.313-.313-.188-1.125l.188-1.063q.063-1.063-.125-1.563t-.625-.625q-.25-.125-1-.125-1.375-.063-2.25-.5-.25-.188-.813-.688-.813-.75-1.125-.688-.5.125-.625 1.875.188 2.563 1.563 4.313.438.313.5.563t0 .5v.188q-.063.313-.313.438-.5.25-1.438-.75-1.625-1.75-2.25-4.25t-.094-5.031T6.87 8.435q2.5-2.813 6.156-3.625t7.031.625q.813.313 1.281.75t.313.656-.844.219-1.375-.25q-2.25-.75-4.75-.188-.875.188-2.063 1.188-.438.375-.625.5-.5.375-1.313.688-.625.25-.938.438l.125-.063q-.25.188-.438.375l-.375.375q.188-.188-.125.188-.563.813-.375 1.688t.938 1.563q1.75 1.313 3.156 1.031t1.781-1.719q.813-3.125 1.625-3.563.875.5 1.75 4.188l.063.25q.063.375.188.563t.375.188l.875-.188q.5-.125.813-.156t.938.031q1.438.125 3 1.313l.063.063q.75.875.938-.688v.063q-.125-1.625-.688-3.625-.25-1-.25-1.313 0-.563.375-.813.438-.188 1.25 1.188 2 3.125 1.719 6.813t-2.719 6.438zm-7.937-5.187q-.375-4.313-.75-4.75-.438.438-.813 4.75-.063.75.438.75h.688q.5 0 .438-.75z"/></symbol><symbol id="RDM" viewBox="0 0 32 32"><path d="M22.188 17.75q-.188-.063-.375-.188-.438-.313-1.125-.313-1.688 0-2.875 1.281t-1.188 3.031 1.031 2.844 2.781 1.344q.375.063.656.406t.156.844q-.125.938-1.875.438-2.188-.375-3.5-1.938t-1.313-4.125q0-1.5.719-2.875t1.969-2.25l.063-.063q.813-.438.938-1.625.188-4.188.688-8.813l.063-.813q.125-1.125.188-1.438.063-.5.313-.5.188 0 .313.5.063.313.125 1.375l.125.875q.313 3.375.563 7.25.125 1.063.375 1.875t.531.969.906.531q1.063.563 1.344.563t.094.313-.688.5-1 0zm-11.625-2.812q.188-.125 1.438.75l.625.438q.438.313.938.438l.188.063q.375 0 .719.219t.156.406q-1.063 1.25-1.375 3.25-.438 3.125 2 6l.063.063q0 .438-.719.063t-1.031-.688-.688-.875q-.25-.188-.563-.063l-.625.438q-1.25.938-1.438.75-.125-.125.75-1.375l.625-.938q.188-.375.125-.938-.125-.375-.188-.75-.125-.688-.5-.813l-1.125-.25q-.938-.125-1.313-.25-.563-.188-.563-.375t.563-.375q.375-.063 1.313-.25l1.188-.25q.25-.063.469-.281t.344-.5.25-.594l.063-.188q-.063-.438-.438-1.063l-.5-.625q-.875-1.25-.75-1.438zM18.25 21.5q0-.875.625-1.469t1.469-.594 1.438.594.594 1.438-.594 1.469-1.438.625-1.469-.625-.625-1.438z"/></symbol><symbol id="BLU" viewBox="0 0 32 32"><path d="M27.75 9.625q-.188 0-1.063.188-.063-1.063-.938-2.063t-1.938-1.125q-.625-.125-1.188.188t-.813.75 0 .688q.063.063.5.125t.625.188q.438.188.563.625.25.625.063 1.125t-.625.625l-3.125.938-.938.375q-.813.25-1.25.375-.75.188-1.625.188t-1.625-.188q-.438-.125-1.188-.375l-.938-.375-1-.313q-6.563-2-7-1.938-1.25.125-.438 2.25v.125q.75 2.375 1.938 4.25 1.625 2.625 3.375 2.875 1.313.188 2.5-.188.75-.188 1.938-.813.75-.438 1.188-.563.625-.25 1.25-.313.875.063 2.313.813-2.563 4.75-3 5.688l-.188.438q-.25.5-.313.75-.063.313.063.438.313.188 1.063-.625l.125-.125q.563-.625 2.125-2.5 2.063-2.375 2.688-3 1 .125 2 0 1.75-.25 3.375-2.875 1.188-1.875 1.938-4.25v-.063Q29 9.75 27.749 9.625zM9.313 16.688Q8.25 16.563 7.5 15.625q-.625-.75-1-1.813-.313-.875-.281-1.313t1.844.125q1.563.5 3.5 1.344t2.219 1.125-.406.719-1.875.719-2.188.156zm13.375 0q-1 .125-2.188-.156t-1.875-.719-.406-.719 2.219-1.125 3.5-1.344q1.813-.563 1.844-.125t-.281 1.313q-.375 1.063-1 1.813-.75.938-1.813 1.063z"/></symbol><symbol id="GNB" viewBox="0 0 32 32"><path d="M26.25 7.125q-1.063 1.5-2.188 3l-.188.375q-.438.563-1.313 1.5L11.686 22.75q1.5.875 3.219 1t3.313-.531 2.656-2 1.438-3.031q.125-.75.531-1.031t.813-.25.781.375.313.969q-.438 2.875-2.188 4.813l.125.563q.25.813.25 1.188.063.625-.281.906t-.844.094q-.313-.125-.875-.5-.75-.438-.875-.313-2.438 1.375-5.25 1.188t-5.063-1.875l-3 2.125q-.438.25-.656.313t-.344 0l-.188-.188q-.063-.125 0-.344t.313-.656l2.188-3 .25-.375q.375-.563 1.313-1.5l9.75-9.688q-1.563-1.125-3.531-1.219t-3.688.813-2.719 2.563-1 3.656q0 .563-.25.969t-.813.469-.969-.375-.406-1.063q0-3.188 1.906-5.719t4.906-3.406q.188 0 .406-.781t.344-1.094q.313-.563.688-.625t.813.5q.25.313.625 1t.5.688q2.75.25 4.938 1.938.938-.875 1.188-.938l3.125-2.125q.563-.375.875-.375.125 0 .188.125l.063.125q.063.125 0 .344t-.313.656z"/></symbol><symbol id="DNC" viewBox="0 0 32 32"><path d="M25.625 13.563q-.125 1.688-.875 2.938-.563.813-2.5 2.938l-.563.625q-2.875 3.063-3.938 5-.25.375-.594 1.219t-.531 1.156q-.313.5-.688.5t-.688-.5q-.188-.313-.531-1.156t-.594-1.219q-1.063-1.938-3.938-5l-.563-.625q-1.938-2.125-2.5-2.938-.75-1.25-.875-2.938t.688-2.875q.75-1.063 1.938-1.375 1.563-.375 3.063-1.375 2.375-1.625 4-4.563 1.625 2.938 4 4.563 1.438 1 3.063 1.375 1.188.313 1.938 1.375.813 1.188.688 2.875zm-2.062-.5q-.188-1.438-1.25-1.938-.875-.438-2-.063-1 .313-1.188 1.438-.125.625 0 1.938.063.688.063.938-.063.375-.25.375-.688.188-1.5-1.125-.75-1.125-.938-2.063 0-.188.063-.594t.25-.906.844-.969.969-.531q-.5-.125-2.688-2.563v.063q-2.188 2.375-2.688 2.5.313.063.969.531t.844.969.25.906.063.594q-.188.938-.938 2.063-.813 1.313-1.5 1.125-.188 0-.25-.375 0-.25.063-.938.125-1.313 0-1.938-.188-1.125-1.188-1.438-1.125-.375-2 .063-1.063.5-1.25 1.938-.125 1.25.688 2.563.5.75 1.75 2.188l.5.563q1.063 1.125 2.813 2.688.875.813 1.188 1.188.563.5.688 1 .125-.5.688-1 .313-.375 1.188-1.188 1.75-1.5 2.813-2.688l.5-.563q1.25-1.438 1.75-2.188.813-1.313.688-2.563z"/></symbol><symbol id="clock" viewBox="0 0 32 32"><path d="M20.586 23.414 14 16.828V8h4v7.172l5.414 5.414zM16 0C7.163 0 0 7.163 0 16s7.163 16 16 16 16-7.163 16-16S24.837 0 16 0zm0 28C9.373 28 4 22.627 4 16S9.373 4 16 4s12 5.373 12 12-5.373 12-12 12z"/></symbol><symbol id="stopwatch" viewBox="0 0 32 32"><path d="M16 6.038V4h4V2a2 2 0 0 0-2-2h-6a2 2 0 0 0-2 2v2h4v2.038C7.288 6.549 2 12.157 2 19c0 7.18 5.82 13 13 13s13-5.82 13-13c0-6.843-5.288-12.451-12-12.962zm6.071 20.033C20.182 27.96 17.671 29 15 29s-5.182-1.04-7.071-2.929C6.04 24.182 5 21.671 5 19s1.04-5.182 2.929-7.071a9.927 9.927 0 0 1 6.754-2.923l-.677 9.813c-.058.822.389 1.181.995 1.181s1.053-.36.995-1.181l-.677-9.813a9.933 9.933 0 0 1 6.754 2.923c1.889 1.889 2.929 4.4 2.929 7.071s-1.04 5.182-2.929 7.071z"/></symbol><symbol id="user" viewBox="0 0 32 32"><path d="M18 22.082v-1.649c2.203-1.241 4-4.337 4-7.432 0-4.971 0-9-6-9s-6 4.029-6 9c0 3.096 1.797 6.191 4 7.432v1.649C7.216 22.637 2 25.97 2 30h28c0-4.03-5.216-7.364-12-7.918z"/></symbol><symbol id="sphere" viewBox="0 0 32 32"><path d="M15 2C6.716 2 0 8.716 0 17s6.716 15 15 15c8.284 0 15-6.716 15-15S23.284 2 15 2zm8.487 20c.268-1.264.437-2.606.492-4h3.983a12.866 12.866 0 0 1-.959 4h-3.516zM6.513 12a23.855 23.855 0 0 0-.492 4H2.038c.104-1.381.426-2.722.959-4h3.516zm14.926 0c.3 1.28.481 2.62.54 4H16v-4h5.439zM16 10V4.146c.456.133.908.355 1.351.668.831.586 1.625 1.488 2.298 2.609.465.775.867 1.638 1.203 2.578H16zm-5.649-2.578c.673-1.121 1.467-2.023 2.298-2.609A4.557 4.557 0 0 1 14 4.145v5.854H9.148c.336-.94.738-1.803 1.203-2.578zM14 12v4H8.021c.059-1.38.24-2.72.54-4H14zM2.997 22a12.894 12.894 0 0 1-.959-4h3.983c.055 1.394.224 2.736.492 4H2.997zm5.024-4H14v4H8.561c-.3-1.28-.481-2.62-.54-4zM14 24v5.854a4.557 4.557 0 0 1-1.351-.668c-.831-.586-1.625-1.488-2.298-2.609a14.478 14.478 0 0 1-1.203-2.578H14zm5.649 2.578c-.673 1.121-1.467 2.023-2.298 2.609a4.581 4.581 0 0 1-1.351.668v-5.854h4.852a14.51 14.51 0 0 1-1.203 2.578zM16 22v-4h5.979c-.059 1.38-.24 2.72-.54 4H16zm7.98-6a23.855 23.855 0 0 0-.492-4h3.516c.533 1.278.855 2.619.959 4H23.98zm1.978-6h-2.997c-.582-1.836-1.387-3.447-2.354-4.732a12.974 12.974 0 0 1 3.585 2.54A13.07 13.07 0 0 1 25.958 10zM5.808 7.808a12.974 12.974 0 0 1 3.585-2.54C8.426 6.553 7.622 8.164 7.039 10H4.042a12.97 12.97 0 0 1 1.766-2.192zM4.042 24h2.997c.583 1.836 1.387 3.447 2.354 4.732a12.974 12.974 0 0 1-3.585-2.54A13.07 13.07 0 0 1 4.042 24zm20.15 2.192a12.974 12.974 0 0 1-3.585 2.54c.967-1.285 1.771-2.896 2.354-4.732h2.997a12.97 12.97 0 0 1-1.766 2.192z"/></symbol></defs></svg>